<svg width="50" height="61" viewBox="0 0 50 61" fill="none" xmlns="http://www.w3.org/2000/svg">
<path d="M22 59.9763C22.3 59.9763 22.54 60.0363 22.84 60.0363H27.16C39.34 60.0363 49.18 50.1963 49.18 38.0163V33.6963C49.18 21.5163 39.34 11.6763 27.16 11.6763H22.84C22.54 11.6763 22.3 11.7363 22 11.7363V59.9763V59.9763Z" fill="#FFAE2B"/>
<path d="M28.96 52.2363H24.82C11.62 52.2363 0.880005 41.4963 0.880005 28.2963V24.1563C0.880005 10.8963 11.62 0.15625 24.82 0.15625H28.96C29.2 0.15625 29.38 0.15625 29.62 0.15625L32.44 0.27625V52.0563L29.62 52.1763C29.44 52.2363 29.2 52.2363 28.96 52.2363ZM24.82 5.55625C14.56 5.55625 6.22001 13.8963 6.22001 24.1563V28.2963C6.22001 38.5563 14.56 46.8963 24.82 46.8963H27.1V5.55625H24.82Z" fill="#54493E"/>
</svg>
